<svg width="432" height="45" viewBox="0 0 432 45" fill="none" xmlns="http://www.w3.org/2000/svg">
<path d="M0 43.1294V5.64673C5.42724 2.98839 11.2595 1.65922 17.4968 1.65922C22.708 1.65922 26.7447 2.9618 29.6068 5.56698C32.4959 8.17216 33.9405 11.8407 33.9405 16.5725V43.1294H27.9462V16.5725C27.9462 15.4294 27.8247 14.4193 27.5817 13.542C27.3387 12.6382 26.8662 11.6812 26.1641 10.671C25.4621 9.66083 24.3281 8.88991 22.762 8.35824C21.1959 7.79999 19.2248 7.52086 16.8487 7.52086C13.3656 7.52086 9.73392 8.06582 5.95376 9.15574V43.1294H0Z" fill="#0069B4"/>
<path d="M43.6977 23.2715C43.6977 23.2184 43.6977 23.1253 43.6977 22.9924C43.6977 22.8595 43.6977 22.7532 43.6977 22.6734C43.6977 8.66395 49.7595 1.65922 61.883 1.65922C64.4211 1.65922 66.7162 2.05797 68.7683 2.85547C70.8474 3.62639 72.4945 4.54352 73.7095 5.60686C74.9246 6.67019 75.9911 8.06582 76.9091 9.79375C77.8272 11.4951 78.4752 12.9439 78.8532 14.1401C79.2582 15.3364 79.5688 16.7852 79.7848 18.4865C80.0008 20.1347 80.1088 21.1715 80.1088 21.5968V23.3513L79.9468 26.2223H49.773C50.151 30.3162 51.42 33.2935 53.5801 35.1543C55.7402 36.9886 58.9399 37.9057 63.1791 37.9057C69.2003 37.9057 73.939 36.8956 77.3952 34.8752V40.9362C73.399 42.8237 68.5523 43.7674 62.855 43.7674C62.774 43.7674 62.693 43.7674 62.612 43.7674C60.1819 43.7674 57.9543 43.4883 55.9292 42.93C53.9041 42.3452 51.9061 41.3483 49.935 39.9394C47.9909 38.5304 46.4653 36.4171 45.3583 33.5992C44.2512 30.7548 43.6977 27.3122 43.6977 23.2715ZM49.773 20.9987H73.993C73.993 20.0682 73.8715 19.0315 73.6285 17.8884C73.4125 16.7453 72.9535 15.2832 72.2514 13.5021C71.5764 11.6945 70.3344 10.1925 68.5253 8.99624C66.7432 7.79999 64.5291 7.20186 61.883 7.20186C57.7788 7.20186 54.7952 8.25191 52.9321 10.352C51.096 12.4521 50.043 16.001 49.773 20.9987Z" fill="#0069B4"/>
<path d="M89.7704 43.1294V1.49915H104.412C107.281 1.49915 109.695 1.87502 111.656 2.62676C113.637 3.3785 115.071 4.38421 115.958 5.64388C116.846 6.88324 117.454 8.0718 117.785 9.20958C118.135 10.3473 118.311 11.5664 118.311 12.8667C118.311 14.0654 118.135 15.1727 117.785 16.1886C117.454 17.2044 117.042 18.0171 116.546 18.6267C116.072 19.2362 115.577 19.7644 115.061 20.2114C114.565 20.6381 114.142 20.9327 113.791 21.0952L113.296 21.339L114.101 21.6743C114.431 21.7962 115.019 22.1314 115.865 22.68C116.732 23.2082 117.485 23.8076 118.125 24.4781C118.786 25.1282 119.394 26.0628 119.951 27.2818C120.509 28.4806 120.787 29.791 120.787 31.2133C120.787 32.5948 120.591 33.885 120.199 35.0837C119.828 36.2824 119.157 37.5421 118.187 38.8627C117.217 40.163 115.659 41.1992 113.513 41.9713C111.387 42.7433 108.756 43.1294 105.619 43.1294H89.7704ZM95.6828 38.0094L105.248 37.9485C108.508 37.9485 110.923 37.41 112.491 36.3332C114.08 35.2564 114.875 33.4685 114.875 30.9694C114.875 28.3891 114.008 26.6317 112.275 25.6971C110.541 24.7625 108.054 24.2952 104.815 24.2952H95.6828V38.0094ZM95.6828 19.1143H104.35C106.971 19.1143 108.962 18.6876 110.325 17.8343C111.707 16.981 112.398 15.386 112.398 13.0496C112.398 10.6724 111.666 9.01656 110.201 8.08196C108.756 7.14737 106.62 6.68007 103.793 6.68007H95.6828V19.1143Z" fill="#0069B4"/>
<path d="M129.825 25.9714V1.49915H135.738V26.459C135.738 30.5428 136.666 33.5599 138.524 35.5104C140.381 37.4608 143.249 38.4361 147.129 38.4361C151.029 38.4361 153.908 37.4608 155.766 35.5104C157.623 33.5599 158.551 30.5428 158.551 26.459V1.49915H164.433V25.9714C164.433 31.579 162.926 35.937 159.914 39.0456C156.901 42.1338 152.639 43.6779 147.129 43.6779C141.64 43.6779 137.378 42.1338 134.345 39.0456C131.332 35.937 129.825 31.579 129.825 25.9714Z" fill="#0069B4"/>
<path d="M173.978 43.1294V1.49915H179.828V37.7046H200.878V43.1294H173.978Z" fill="#0069B4"/>
<path d="M205.619 30.5938C205.619 28.7329 205.957 27.0715 206.632 25.6094C207.334 24.1207 208.184 22.9244 209.184 22.0206C210.183 21.0902 211.452 20.306 212.991 19.668C214.53 19.0034 215.893 18.5249 217.081 18.2325C218.269 17.9135 219.673 17.6742 221.294 17.5147C222.941 17.3552 224.102 17.2622 224.777 17.2356C225.479 17.209 226.302 17.1957 227.247 17.1957L233.89 17.5945C233.89 13.9525 232.864 11.3606 230.811 9.8188C228.786 8.25038 225.776 7.46617 221.78 7.46617C217.297 7.46617 213.261 8.11746 209.67 9.42005V3.7179C213.747 2.30898 217.891 1.60452 222.104 1.60452C227.909 1.60452 232.337 3.05332 235.388 5.95091C238.439 8.82192 239.965 13.0354 239.965 18.5913V30.833C239.965 33.4382 239.344 35.6712 238.102 37.532C236.887 39.3663 235.307 40.6955 233.363 41.5195C231.446 42.3436 229.637 42.9152 227.936 43.2342C226.262 43.5532 224.601 43.7127 222.954 43.7127C221.685 43.7127 220.376 43.6329 219.025 43.4734C217.702 43.3139 216.19 42.9551 214.489 42.3968C212.815 41.812 211.357 41.0809 210.115 40.2037C208.873 39.2998 207.806 38.0238 206.915 36.3757C206.051 34.7009 205.619 32.7736 205.619 30.5938ZM211.573 30.5938C211.573 35.6978 215.326 38.2498 222.833 38.2498C222.86 38.2498 222.9 38.2498 222.954 38.2498C230.298 38.2498 233.971 35.7775 233.971 30.833V22.9776C232.135 22.6586 229.677 22.4991 226.599 22.4991C216.582 22.4991 211.573 25.1973 211.573 30.5938Z" fill="#0069B4"/>
<path d="M265.734 44.0032C263.62 44.0032 261.655 43.9199 259.838 43.7535C258.02 43.5871 256.33 43.3166 254.766 42.9421C253.245 42.526 251.786 41.9851 250.392 41.3193V30.7088C252.505 32.3316 254.808 33.5383 257.302 34.3289C259.795 35.0778 262.057 35.4523 264.085 35.4523C265.691 35.4523 266.98 35.1611 267.952 34.5785C268.924 33.996 269.41 32.9973 269.41 31.5826C269.41 30.6256 268.924 29.8558 267.952 29.2733C267.023 28.6491 265.755 28.1082 264.149 27.6505C262.585 27.1511 260.81 26.5686 258.823 25.9029C257.64 25.4868 256.478 24.9874 255.337 24.4049C254.238 23.8224 253.245 23.0942 252.357 22.2204C251.469 21.3466 250.751 20.2647 250.202 18.9748C249.652 17.6849 249.377 16.1245 249.377 14.2937C249.377 12.4628 249.716 10.7152 250.392 9.05084C251.11 7.38644 252.167 5.90929 253.562 4.61938C254.956 3.32947 256.731 2.33084 258.887 1.62347C261.042 0.874489 263.557 0.5 266.431 0.5C268.164 0.5 269.727 0.604025 271.122 0.812074C272.517 0.978514 273.827 1.26978 275.053 1.68588C276.321 2.10198 277.589 2.6221 278.856 3.24625V13.9816C277.927 13.191 276.828 12.442 275.56 11.7347C274.334 11.0273 273.045 10.424 271.693 9.92465C270.34 9.42533 268.988 9.13406 267.635 9.05084C266.494 9.00923 265.417 9.11325 264.402 9.36291C263.43 9.57096 262.627 9.96626 261.993 10.5488C261.401 11.1313 261.106 11.9219 261.106 12.9206C261.106 13.9608 261.444 14.793 262.12 15.4172C262.838 15.9997 263.811 16.499 265.036 16.9151C266.304 17.2896 267.699 17.6849 269.22 18.101C270.995 18.6003 272.601 19.162 274.038 19.7862C275.518 20.4103 276.786 21.1801 277.842 22.0955C278.899 23.011 279.723 24.1344 280.315 25.4659C280.906 26.7559 281.202 28.337 281.202 30.2095C281.202 32.8725 280.568 35.2443 279.3 37.3248C278.032 39.4053 276.236 41.0489 273.912 42.2556C271.629 43.4206 268.903 44.0032 265.734 44.0032Z" fill="#9D9D9C"/>
<path d="M310.655 44.5876C303.935 44.5876 298.906 43.2561 295.567 40.5931C292.27 37.9301 290.622 33.7067 290.622 27.9229V1.52138H302.604V27.2987C302.604 30.253 303.174 32.4375 304.316 33.8523C305.499 35.267 307.422 35.9744 310.085 35.9744C312.451 35.9744 314.29 35.267 315.6 33.8523C316.91 32.4375 317.565 30.253 317.565 27.2987V1.52138H328.469V27.9229C328.469 31.7926 327.709 34.9549 326.187 37.4099C324.666 39.8649 322.552 41.675 319.848 42.84C317.185 44.0051 314.121 44.5876 310.655 44.5876Z" fill="#9D9D9C"/>
<path d="M338.021 43.1294V1.49863H349.559V43.1294H338.021Z" fill="#9D9D9C"/>
<path d="M370.253 43.1294V10.1119H358.969V1.49863H393.139V10.1119H381.665V43.1294H370.253Z" fill="#9D9D9C"/>
<path d="M402.521 43.1294V1.49863H432V10.1119H414.059V17.9762H429.528V26.5894H413.996V34.5161H432V43.1294H402.521Z" fill="#9D9D9C"/>
</svg>
